<svg id="b4200d7e-7896-4022-b85b-f69170875645" data-name="Layer 1" xmlns="http://www.w3.org/2000/svg" viewBox="0 0 97.96 97.96"><path className="text-brand" d="M26.47,49.89,9.92,66.44a4.39,4.39,0,1,1-6.21-6.21L17.16,46.79,3.71,33.34a4.39,4.39,0,0,1,6.21-6.21L26.47,43.68A4.4,4.4,0,0,1,26.47,49.89Z"/><path className="text-brand" d="M94.27,66.44a4.38,4.38,0,0,1-6.21,0L71.51,49.89a4.4,4.4,0,0,1,0-6.21L88.06,27.13a4.39,4.39,0,0,1,6.21,6.21L80.83,46.79,94.27,60.23A4.4,4.4,0,0,1,94.27,66.44Z"/><rect className="text-brand" x="44.34" y="10.21" width="8.78" height="77.54" rx="4.39" transform="translate(14.34 -10.94) rotate(15)"/></svg>