<?xml version="1.0" encoding="UTF-8"?>
<svg id="Layer_1" data-name="Layer 1" xmlns="http://www.w3.org/2000/svg" viewBox="0 0 132.19 132.19">
  <rect x="15.61" y="15.61" width="100.97" height="100.97" rx="12.81" ry="12.81" transform="translate(66.09 -27.38) rotate(45)" style="fill: #face16; opacity: .2; stroke-width: 0px;"/>
  <g>
    <rect x="61.04" y="41.14" width="9.95" height="49.75" rx="4.98" ry="4.98" transform="translate(66.02 -27.34) rotate(45)" style="fill: #face16; stroke-width: 0px;"/>
    <path d="m71.15,38.03c0,1.27-.49,2.55-1.46,3.52l-10.56,10.55c-1.94,1.94-5.09,1.94-7.03,0-1.95-1.94-1.95-5.09,0-7.04l7.03-7.03-7.22-7.23c-1.95-1.94-1.95-5.09,0-7.03.97-.97,2.24-1.46,3.52-1.46s2.54.49,3.51,1.46l10.56,10.55s.06.06.09.1c.04.03.07.06.1.09.97.97,1.46,2.24,1.46,3.52Z" style="fill: #face16; stroke-width: 0px;"/>
    <path d="m80.28,108.43c-1.94,1.94-5.09,1.94-7.03,0l-10.56-10.56c-1.94-1.94-1.94-5.09,0-7.03l10.56-10.55c1.94-1.95,5.09-1.95,7.03,0,.97.97,1.45,2.24,1.45,3.51s-.48,2.55-1.45,3.52l-7.03,7.04,7.03,7.03c1.94,1.95,1.94,5.1,0,7.04Z" style="fill: #face16; stroke-width: 0px;"/>
  </g>
</svg>